<svg width="40" height="40" viewBox="0 0 40 40" fill="none" xmlns="http://www.w3.org/2000/svg">
  <defs>
    <linearGradient id="logoGradient" x1="0%" y1="0%" x2="100%" y2="100%">
      <stop offset="0%" style="stop-color:#667EEA;stop-opacity:1" />
      <stop offset="50%" style="stop-color:#805AD5;stop-opacity:1" />
      <stop offset="100%" style="stop-color:#9F7AEA;stop-opacity:1" />
    </linearGradient>
    <linearGradient id="glowGradient" x1="0%" y1="0%" x2="100%" y2="100%">
      <stop offset="0%" style="stop-color:#667EEA;stop-opacity:0.4" />
      <stop offset="100%" style="stop-color:#9F7AEA;stop-opacity:0.2" />
    </linearGradient>
    <filter id="glow">
      <feGaussianBlur stdDeviation="3" result="coloredBlur"/>
      <feMerge> 
        <feMergeNode in="coloredBlur"/>
        <feMergeNode in="SourceGraphic"/>
      </feMerge>
    </filter>
  </defs>
  
  <!-- Background circle with subtle glow -->
  <circle cx="20" cy="20" r="18" fill="url(#glowGradient)" opacity="0.1"/>
  
  <!-- Main infinity symbol -->
  <path d="M12 20C12 16.5 14.5 14 18 14C21.5 14 24 16.5 24 20C24 23.5 26.5 26 30 26C33.5 26 36 23.5 36 20C36 16.5 33.5 14 30 14C26.5 14 24 16.5 24 20C24 23.5 21.5 26 18 26C14.5 26 12 23.5 12 20Z" 
        fill="url(#logoGradient)" 
        filter="url(#glow)"
        stroke="rgba(255,255,255,0.2)" 
        stroke-width="0.5"/>
  
  <!-- Neural network dots -->
  <circle cx="15" cy="17" r="1.5" fill="url(#logoGradient)" opacity="0.8"/>
  <circle cx="25" cy="23" r="1.5" fill="url(#logoGradient)" opacity="0.8"/>
  <circle cx="20" cy="20" r="1" fill="white" opacity="0.9"/>
  
  <!-- Connection lines -->
  <line x1="15" y1="17" x2="20" y2="20" stroke="url(#logoGradient)" stroke-width="0.5" opacity="0.6"/>
  <line x1="20" y1="20" x2="25" y2="23" stroke="url(#logoGradient)" stroke-width="0.5" opacity="0.6"/>
</svg>
